<svg width="210" height="305" fill="none" xmlns="http://www.w3.org/2000/svg"><path fill-rule="evenodd" clip-rule="evenodd" d="M207.6 165.8c-1-.3-2.1-.3-3.2-.4-3.6-.2-7.3 1.5-11 2.3-1.5.4-3.1.9-4.8 1.2l-4.6.4c-1.2 0-2.7 0-3.1 1.3-2.5.5-4.8.7-7.2.3a4 4 0 00.2-2.4l.3-.6h-.3c-4.2-1.7-8.7-2.8-13-4.6-5.4-2-13.6-5.8-20-8.4.5-2.3.7-4.7.5-7l.2-.2c.1-.5.2-1 .5-1.4.3-.8.3-2 .4-2.8a20 20 0 000-6.5c-.2-2.8-2.1-5-4.2-6.7l-7.6-7.5c-13.6-13.9-14.7-31.3-36.1-36.6V86c-.2-.2-.3-.3-.5 0-.7-.3-1.6-.3-2.2-.8-1-1-1.8-2-2.3-3.3-.3-2.5 0-6.3-2.2-7.9-2.5-1.4-15.3-2.4-16.4.7-.7.7-1 1.5-1.2 2.5-.7 1.3-1.2 2.8-2 4.2-1.5 3-2.4 2.4-5.2 3-.2-.6-1.1-.5-1.8-.4C53 85.2 43.3 88.2 40 95.6h.3c-5.9 10.8-2 24.6-1 36a96 96 0 01-2.5 30.1 38.9 38.9 0 002.6 30.6c.6 1 1.3 2.5 2.5 1.9.7.5 1.4.8 2.5 1.1.3.2.6.6.9.7l.5-.2c.9 1.3 50.9 5.6 56 6.2 4.6.6 10.7 2 14.4-1.3 3-.9 6.3-3.1 8.8-5.4 1.5 21.5 2.3 65.5 3.6 65.8l2 .7c0 1.5.2 3.3 0 4.8-.2 1.7-.7 3.7-1 5.5-1 0-1.2 1-1.3 1.6a88 88 0 00-.8 16.4c10.2 6 22.2 9.3 33.7 13.1 1.1.9 3.5 0 4.8-.2 4.4-1 9.4-3.5 8.3-8.2-.8-3.5-4.2-5.5-7.1-7.6-3.2-2.3-6.5-4.5-9.4-7.2-2.3-2.2-4-4-6-6.4-.9-1.1-1.8-3-3-3.8 1.3-1.5-1.2-.1-2.2 0a71 71 0 00-2-7.6h.8c2.6-2.3 4-14 4.2-17.4 1.4-22.5 1.3-48.4-4-67.4 4 2.5 8.4 4.5 12.4 7 2.5 1.4 5 3.4 7.8 4 .2.6.9.8 1.3.3.5 0 1.1-.1 1.2-.4.5-1 1.2-2.1 1.1-3.3l-.7-1.6c1.6.7 3.3 2 5 2.1 3.2 11 9.8 4.9 16.1.6l12-8.4c3.4-2.7 10-5.2 6.8-10.6" fill="#fff"/><path fill-rule="evenodd" clip-rule="evenodd" d="M64.6 83.9c3.2-.8 3.7-8.4 5.7-7.4 1.1 1-.7 2.8-1 4l-.2.2a7.3 7.3 0 01-2.7 3.3c-.8.9-3.3 0-3 1.4 1.3 4.2 8.1 7 12.1 8.4 6.2 2.3 16.3 1.5 17.8-6.3-3.4-.6-6-6.7-3.9-9.2.1 2.4.8 5 2.7 6.7h.1c.4.4.8.7 1.3.7.4-.6 1.3-.3 1.5.3 19.4 3.4 23.8 24.2 36 36.4 2.4 2.6 5 5 7.5 7.5a11 11 0 014.6 8.2c.2 1.9 0 3.7-.2 5.6v.1c-.1 1.2-.2 2.4-.7 3.4-.1.4 0 .8-.4 1a34 34 0 01-.3 6.4l.9.4a302 302 0 0031.5 12.3c1-.1.9 1 .4 1.4a4 4 0 010 1.7c2 .3 4 0 6-.3.5-1.3 2.2-1.3 3.4-1.3l4.7-.5c3.9-.8 7.6-2 11.4-3 2.6-.6 5.3-.6 7.9 0l1.2 1.6c2.3 3.6 0 6.9-3.3 8.8l-15.7 11-.4.2c-6.2 4.5-13.2 10.1-16.6-.7-1-.1-2-.9-3.1-1.3.3 1.3-.6 2.6-1.1 3.7-.3.6-1 .8-1.6.8-.5.6-1.6.4-2-.3-2.8-.8-5.1-2.7-7.6-4.1-3.6-2.2-7.4-4-11-6.1 6 24.9 4.5 50.8 2.9 76.1v.3c-.2 3.7-1 5.4-4.2 7.7a41 41 0 011.4 5c.2.3.8 0 .8.5 1-.3 3.3 0 2.5 1.5 2.2 1.9 3.7 4.4 5.6 6.4 3.5 4.1 7.9 7.1 12.3 10 10 5.2 10.6 14-1.2 17-1.7.4-3.6 1.3-5.2.5-2.4-.4-4.7-1.3-7-2a244 244 0 01-27-10.7 1 1 0 01-.5-.8c.1-2.8-.7-18.2 2.3-18.5.6-3.1.7-6.4.6-9.6-1-.3-1.9-.6-2.9-.7-1-.3-2.4-.4-3-1.2-.3 0-.5-.3-.4-.6l1.2-14.4c1-16.2.6-32.5-.5-48.7a25 25 0 01-7.8 4.7c-1.6 1.6-4.2 1.9-6.4 2-2.8.3-5.6-.3-8.4-.6a57 57 0 00-14.1.5l-1.6.2a66.5 66.5 0 01-34.7-3.4c-2 .2-4.5-2-5.7-3.4-.6.3-1.2-.4-1.6-.7a8 8 0 01-2.2-1c-1.7.5-2.6-1.6-3.2-2.8-10.2-17.3 1.1-34.4.3-52.7.5-14.4-6.1-29.3.2-43 1.3-6 8.9-10 14.5-11.4 1.9-.3 8.8-2.8 9.6-.7.3-.5 1-.5 1.5-.5zm84.1 186.8l-2.8.3c-3.4.6-6.7 2-9.6 3.7-1 .6-1.8 1.4-3 1.7-2.2.8-4.4-1.2-4.2-3.4a92 92 0 00-.2 16.6 291 291 0 0027 10.6c2 .8 4.5 1.1 6.4 2.3 3.2-.2 6.4-1.3 9.2-3.1 4.5-3.1 1.5-8-2.3-10.2a55 55 0 01-20.5-18.5zm-18-8.1c-.1 1.6 1.1 4.2 1 7.4-.2 1-.5 2-.4 3 .5 3.8 4.6-1 6.3-1.5 2.4-1.3 5-2.2 7.7-2.7 0-.8-.6-1.2-.7-2l-.1-3.8c-3.5 1.6-10 .5-13.8-.4zm18.9 7.9h-.2c.5.6.9 1.3 1.5 1.8l-.3-.4-1-1.4zM41 135.8c-.2.7-.5 1.4-1 2 2.5 20-10.3 36.6 1.5 55.2l.4.3.2-.2c5.5-9.6 13.3-18 19.6-27.2 1.2-2.4 3.1-4.7 3.9-7.4-12.6-4.9-17.6-12-24.6-22.7zm165 30.3c-.5.2-1 0-1.6 0-2 0-4 .5-6 1-5.6 1.6-11.2 3-17 3.8 0 .2-.2.3-.3.4v.6c-.9 1.6-.2 3.7-.8 5.4-.9 3.6-3.3 7.6-7 8.9 1.3 1.1 2.1 2.6 3.4 3.7 3 2 6.4-1 8.9-2.7l14.3-10c2.1-1.7 6.8-4 7.9-6.3.6-1.8-.6-3.5-1.8-4.8zm-32.7 4.6a71 71 0 00-4.4 13l3.6 1.2c1.7.4 4-2.9 5-4.2.8-1.4 1.4-3 1.7-4.7.2-1.6 0-3.3.7-4.8-2.2.2-4.5.2-6.6-.5zM51.8 162c1.9-.5-2.5 3.8-2.7 4.3-2.9 3.3-5.5 6.8-8 10.4l-.9 1c0 .1-.5.9-.2.8-2.3.5 10.6-16.2 11.8-16.5zm46.8-2c.1-.5-.6-.7-.8-.2l-.5 1.5c-1.8 5.5-3.6 11-5.9 16.4-.1.5.6.7.8.2 2.4-5.8 4.3-11.9 6.4-17.9zm21.4-2c-.6 3.2-2.3 6.1-3.4 9.1 2-.4 3.5-2.2 4.6-3.7.6-.9 1.2-2.2 2.4-1.6 1.8 1 .5 4.8.5 6.6-.3 2.5-1 4.7-1.6 7.1 1.4-1 1.8-2.8 2.5-4.3l2.6-6.2c2-2.7 1 5.2 1 6-.2 1.6-1 3.2-.6 4.9 1-1.2 1.7-2.7 2.3-4.1l2.3-6.3c.3-.6 1.3-.4 1.1.3l-.1 7.1v1.8c0 .3-.2 1.3.4 1 3-3.2 3.8-9.6 3.4-13.8-6 0-12.1-.7-17.4-3.8zm53.6 12l-.1.2v-.2zM40 170c-.6-.5 10.6-14.8 9.9-10.7-3.2 3.7-6.8 7-9.9 10.7zm99.1-31.6c-10.5-2.5-19.7 6.7-30.3 5.3.2 3.3.3 6.5.3 9.8 14 1.2 12.4 7 28.5 6.5 2-1.4 3-9.9 2.7-12.4.2-3-2.5-4.4-5-5-1 .6-2.7-1-1.3-1.7a16.6 16.6 0 005.1-2.5zM61.7 84.8c-3.7.4-7.4 1.4-10.8 3-12.7 3.6-14.6 18.3-13 29.5a44 44 0 008.2 23.7c13.6 20.7 36.2 17.4 57.7 14.7.7-.6 2-.2 2.8-.9a.8.8 0 01-.2-.1c.3-.3.6-.8.7-1.3h.1c.2-3.2 0-6.3.1-9.5-7-2-14.6-3-21.7-4.8-.8.5-1.7-.1-2.5-.4a168.2 168.2 0 00-6.2-2.5l-.6-.2-4-1.5-.5-.2c-.8-.4-2.8-1.5-3.6-.8v.1c.6 1.1 2.3 5.1.2 4.3-1.7-1.2-2.6-9.5-4.3-9.6-.6 1.6-1 3.2-1.1 4.8 0 .4-.6.7-.9.4-2-2.7 1-5.5 1.1-8.3.2-3.2-1.2-6.3-2-9.4v-.2c-.4-2-1-4.4-.9-6.2l.4 1.5 1.4 4.7c1.2 3.9 3.4 7.8 2.2 12 2.5 0 2.9 4 3.8 5.7 1.5-2 12 2.7 14.5 3.4l.4-.5c7.5-8.5 13-14.2 24.7-7.5-2-6.5-2.2-13.4-2.6-20 .1-1.3-.6-4.7.4-5.4l.6.1v.7c0 1.3 0 3.4.6 3.9l.2 2.5c.7 6.6 1.4 13.2 3.4 19.6 4.7 2.6 9 6 13.2 9.5l.4-.2c5-1.8 11.2-4.1 16.3-1.9 0-1.3-.6-2.5-1.3-3.6-1.1-.3-1.9-1.5-2.7-2.3l-8-8.5c-11-11.8-15.8-31.2-33.2-35.8-1.1 9.5-13.4 11-20.8 7.8l-.3-.1c-4.6-1.8-9.8-4.5-11.4-9.3l-.1-.2c-.2-.3-.4-.6-.7-.7zm2.7 54.4c-2 2.7-3.8 6.3-1.7 9.6.4.7-.5 1.4-1.1.8-3-3.3.3-7.9 2.8-10.4zm75.2.6a19 19 0 01-3.8 2l-.1.5c1.7.1 3.6.6 4.8 1.9l.2-1.4c.1-1.3-.1-2.3-1-3zm-81.7-12h.1c0 1-.7 1.6-1.3 2.3l-2.7 3c-1.4 1.8-3.6 3.6-3.1 6.2 0 1-1.2 1.1-1.6.4-1.9-3.5 4-6.5 6-8.7.8-1 2.3-1.7 2.6-3.1zm27.8 10.6a.4.4 0 010 .2h1l-1-.2zm-46.4-8.2l.1 1v.5a.6.6 0 01.2-.3l-.3-1.2zm85.3-3.8c.7 0-2.7 2.3-2.9 2.6-.2.2-.6-.2-.3-.4l3.2-2.2zm-6.6-7.1c.5-.2.9.6.4.9-1.8.9-3.7 1.5-5.4 2.6 0 0-.1 0 0-.1l.1-.2c1.6-1.2 3-2.5 4.9-3.2zm-78.1-10.8c.5 2.3 3.2 3 5.3 3.7l.6.2c1.9.8 3.8 1.5 5.2 3 .5 1.7-3.3-1.2-3.8-1.4-2.5-1.5-7.1-1.8-7.3-5.5zM95 86.6v.4h.5l-.5-.4z" fill="#2B283A"/><path fill-rule="evenodd" clip-rule="evenodd" d="M82.7 26.3c6.8 0 15.4 7.7 18 11 2 2.8 1.8 17.2 1.8 25.7 0 1.7-.8 5.1-1.1 6.8-1.1 6.2-5.8 11.5-15 11.5-7.6 0-13.4-2.4-19-8.5-1.4-1.4-7.6 3.6-8.9 1.8-3.3 0-6.1-31 .4-40.4s17-8 23.8-8z" fill="#fff"/><path fill-rule="evenodd" clip-rule="evenodd" d="M62 28.5a21 21 0 0114.6-5.2 27.1 27.1 0 0112 3.2l1.2.8c1 .4 2 1 2.8 1.9a13 13 0 015 .5c2.3.7 4.4 2 5.9 3.9 1.7 2.2 2.3 4.8 2 7.5v.5c-.2 2.4-.5 5.5-2.5 7l-.5.3c1.3 2.2 2.3 4.6 3 7 2.3 9.4.5 19.1-2.4 28-.2.8-1.4 1.3-2 .6A6.4 6.4 0 0097 82c-1 0-2 .1-3-.3-.4-.2-.8-.5-1-.9a12 12 0 01-5.3.8c-2.8 0-6-1-8-3.2l-.3-1.1a4.3 4.3 0 01.8-.2 17 17 0 008.3 2.5c1.7 0 3.4-.2 4.8-1.3l.8-.7c3-2 5-5 6-8.5 1-3.2.8-6.5.5-9.7l-.2-1.7-.5-7.6c.6 0 .6-1 0-1h-4.8a8 8 0 00-.3-2.2c-.1-.5-.8-.5-1 0v2c-2.5 0-4.9-.3-7.3-.2-.4-.5-.5-1.3-.8-1.9a21.6 21.6 0 000-.2 13.5 13.5 0 01-.8 2.4h-.6c-3.4 0-6.8.1-10 .8a.9.9 0 01-.4-.7c-.3-1.8-.6-3.6-1.2-5.3v-.2h-.1a13 13 0 01-2.6 3l-1 1.1v2.7a11.7 11.7 0 01-1.2 4.2v.1a4 4 0 01-.6 1.7c.4.5.7 1 .9 1.7.2.6-.6 1-1 .6l-1-1-.2.1c-1-.6-3-.4-4 .2-1.4.7-1.9 2.1-1.7 3.6.1 1.3.7 3 2 3.7a1.8 1.8 0 002 0V65c.4-.3.8-.5 1.3-.5.4-.1.9 0 1 .6.1.2.3.5.3 1 0 .3-.3.7-.5 1a2.5 2.5 0 01-.2.1c4.7 5 5.3 13 3 19.3a19.8 19.8 0 01-.4.9c-.4 1-2 .6-2.2-.3a20.5 20.5 0 00-.6-2.3v-.2l-.5-1.2a5.2 5.2 0 010-.2l-.3.6-.7 1.6c-.4.7-1.5.3-1.5-.4a10.7 10.7 0 000-.4l-.5-2.9-.1.1c-1.5 1.8-3.2 3.5-5.5 3.9-.6.1-1.3-.5-.9-1l.5-.8a5.3 5.3 0 01-.4-.2 7.4 7.4 0 01-2.2-2 10.6 10.6 0 01-1.9-6 20.6 20.6 0 011.6-9.5 34.9 34.9 0 01-2-11.6c-.1-4.8.7-9.6 2.4-14 1.8-4.5 4.5-9 8.2-12.2zm-2.2 41.3c-.3-.5-1.1 0-.8.5.5.8.8 1.8 1 2.7.3.6 1.2.3 1-.3v-.2c-.4-1-.6-1.8-1.2-2.7zm2.9-9.8h.2c.7-.4 1.3-.6 2.1-.3 1.1.3 2.3 1.6 1.5 2.7-.2.5-.7.6-1.2.5-.8-.1-1-.9-1.5-1.5v-.1c-.3-.4-.6-.9-1-1-.2 0-.2-.2-.1-.3zm.6-25c.6-.4-.1-1-.6-.7-2.1 2-2.9 4.8-4 7.3-.2.6.6 1 .9.5 1-2.4 1.7-5.2 3.7-7zm25.6-.7c-.6-.3-1 .5-.5.8 1.9.8 2.7 2.8 3.5 4.5.2.6 1 .1.8-.5l-.1-.3c-.8-1.8-1.8-3.7-3.7-4.5zm3-1.2c-.6-.2-.9.7-.3 1a7 7 0 013.6 3c.3.5 1.2 0 .8-.4a8.5 8.5 0 00-4.2-3.6z" fill="#2B283A"/><path fill-rule="evenodd" clip-rule="evenodd" d="M95.4 66.5c0-.1.2-.1.2 0 .3.8.4 1.6.8 2.4a.8.8 0 01.2.3l.7.9c.3.3.5.7.3 1.1 0 .3-.3.4-.5.4-.7 0-1-.6-1.3-1.3a12 12 0 01-9.6-.4v.8l.2 1.6c0 .5-.4.8-.9 1-.4 0-1-.3-1-.8-.1-.5 0-.9.2-1.4l.3-1.4.3-1.4c.1-.3 0-.7.2-1 .7.1.7 1.1.7 1.7v.4h.3c1.4.3 2.7.5 4.1.5 1.7-.1 3.2-.7 4.8-1.2-.1-.7-.2-1.5 0-2.2zm-5.6-15a6.3 6.3 0 016.7 1.8c1 1.3 1.7 2.8 1.6 4.4 0 1.6-.4 3.4-1.2 4.9-1.7 3-5.7 3-8.6 1.8a6.3 6.3 0 01-3.5-7.6c.5-2.4 2.4-5.2 5-5.2zm5 2.4c-1-.7-2-1-3.2-1-.6 0-1.2.2-1.7.5l-.8.4-.7.3h-.1c-.4.2-.8 0-.9-.4-.8 1.2-1.3 3-1.3 4.4 0 1.1.3 2.3 1 3.2a5 5 0 003 1.8 7 7 0 003.5 0 3 3 0 002.3-2.2c1-2.4 1-5.3-1.1-7zm-4 3c.5-.7 1.4-.8 1.9 0 .3.4.3.9.2 1.4v.1l-.1 1.3c-.2.5-.6.8-1.2.7a1 1 0 01-.8-.5c-.2-.4-.2-.9-.3-1.4v-.3c0-.5 0-1 .3-1.3z" fill="#2B283A"/></svg>